# Blender v2.78 (sub 0) OBJ File: ''
# www.blender.org
mtllib stone1.mtl
o rock_01
v -1.046391 -0.886404 2.124531
v -1.598541 -0.769320 1.348737
v -1.135071 -1.600602 1.452273
v 0.110196 -0.959781 2.224542
v -0.018624 -1.563309 1.710870
v -1.325676 -0.193563 2.087976
v -0.361272 -0.233349 2.145075
v -1.745955 -0.172896 1.337292
v 1.164000 -0.785301 1.732866
v 0.995061 -0.335211 2.235357
v 0.623037 -1.137468 1.759404
v 1.557882 -0.075306 1.989948
v 0.333639 -0.143313 2.169120
v 0.668430 0.331152 2.160348
v 0.444747 0.855285 2.051220
v 1.675197 0.814992 1.448577
v 0.728790 1.353357 1.521783
v 0.226902 1.279503 1.874790
v -0.334545 0.772494 2.024061
v 1.918431 -0.155790 1.616712
v -0.563310 1.079196 1.803882
v -1.189683 1.095987 0.925815
v -1.386213 0.724881 1.335165
v -1.653537 0.272193 1.636095
v -1.139169 0.465759 2.033379
v -0.129831 1.445079 1.716432
v -0.735930 1.481178 0.849144
v -1.534545 1.162122 0.491280
v 0.210792 1.751475 1.479708
v -0.332670 1.864614 0.858963
v 0.350196 2.102487 0.524259
v -0.135012 2.157711 -0.134364
v -0.587916 2.017032 0.159438
v -1.079241 1.705320 0.200109
v -1.058367 1.585869 -0.360999
v 1.720368 1.434390 0.893091
v 1.024422 2.048559 0.809043
v 1.328841 1.728651 -0.120840
v 0.697407 2.230509 0.140340
v 0.531492 2.170692 -0.687408
v 1.160157 1.324308 -1.643676
v 0.323904 1.681653 -1.654461
v 0.844716 2.066904 -0.495504
v 1.478241 1.473243 -0.638301
v -0.246351 1.934943 -0.836082
v -0.616791 1.657842 -1.152897
v -0.395949 1.492467 -1.661955
v -1.294683 0.613980 -1.201341
v -0.023202 1.008924 -1.949880
v -0.490146 -0.268230 -1.903341
v 0.360309 -0.161724 -2.252139
v -0.894132 -0.083916 -1.587249
v -1.346379 -0.247206 -1.246968
v 1.741062 0.395079 -1.409016
v 1.490919 -0.422061 -1.774911
v 1.025625 0.298413 -1.976847
v 0.523152 0.796638 -1.931850
v 0.659463 -0.826659 -2.129082
v 1.187139 -1.091676 -1.482363
v 0.059940 -1.862811 -1.614990
v -0.041094 -0.750666 -2.136369
v 0.740499 -1.708710 -1.292304
v -1.491714 -1.322961 -0.742776
v -0.857127 -0.854421 -1.565463
v -0.697329 -1.564950 -1.501251
v -1.635828 -1.530177 0.881475
v -1.299093 -1.869285 0.765696
v -1.502001 -1.625589 -0.033906
v -1.196487 -1.918548 0.247401
v -0.225081 -1.996566 0.192555
v 0.143541 -1.885725 0.808875
v -0.621357 -1.878345 0.849549
v -1.099377 -1.914603 -0.380241
v -0.837915 -1.957773 -1.043394
v -0.024375 -1.901376 -1.048017
v -0.392481 -1.933053 -0.741171
v 1.326471 -1.439292 -0.943044
v 1.636503 -1.491978 -0.134850
v 0.533622 -1.992216 0.303072
v 0.896658 -1.816041 -0.490233
v 0.348372 -2.020743 -0.270609
v 0.934617 -1.706490 0.752292
v 1.793517 -1.305840 0.537282
v 1.960011 0.665544 1.040748
v 2.197341 -0.098910 0.598581
v 2.108181 0.452808 -0.083913
v 2.142552 0.873117 0.243834
v 1.977267 1.115259 -0.363105
v 2.211909 -0.653037 1.112160
v 1.970565 -0.911169 -0.460818
v 2.099661 -0.844446 0.492411
v 1.687776 -0.887994 -1.147524
v 1.991007 -0.251007 -0.564504
v 1.913604 0.889143 -0.935487
v -1.696296 -0.110232 -0.696315
v -1.830462 0.358665 -0.071622
v -1.611702 0.832947 -0.034491
v -1.936662 -0.109689 -0.202551
v -2.006049 -0.011817 0.541614
v -1.799661 -1.231926 -0.058752
v -1.913517 -0.696426 0.682461
v -1.936008 0.452832 0.839976
vt 0.6195 0.0857
vt 0.5513 0.1162
vt 0.5466 0.0354
vt 0.7008 0.0209
vt 0.0430 0.7169
vt 0.1279 0.7852
vt 0.1094 0.8581
vt 0.6131 0.1497
vt 0.6823 0.1189
vt 0.5550 0.1849
vt 0.2231 0.8795
vt 0.1840 0.9351
vt 0.1761 0.8383
vt 0.2455 0.9595
vt 0.7597 0.0804
vt 0.8097 0.0326
vt 0.8103 0.1082
vt 0.1063 0.3760
vt 0.1693 0.2623
vt 0.1803 0.3616
vt 0.8062 0.2209
vt 0.7356 0.1875
vt 0.8116 0.1675
vt 0.1459 0.4109
vt 0.0728 0.2378
vt 0.1021 0.1916
vt 0.0673 0.3351
vt 0.0216 0.2785
vt 0.7226 0.2289
vt 0.6599 0.2836
vt 0.6336 0.2464
vt 0.6050 0.2035
vt 0.6654 0.1891
vt 0.7754 0.2553
vt 0.6930 0.3332
vt 0.5906 0.3260
vt 0.1684 0.4504
vt 0.2048 0.4169
vt 0.2624 0.4695
vt 0.2472 0.5223
vt 0.2971 0.4036
vt 0.3638 0.4455
vt 0.3330 0.4937
vt 0.6346 0.4001
vt 0.3191 0.5512
vt 0.7957 0.9453
vt 0.8761 0.9432
vt 0.8379 0.9840
vt 0.2455 0.2672
vt 0.2658 0.3510
vt 0.3369 0.2890
vt 0.3302 0.3679
vt 0.7718 0.8085
vt 0.8265 0.6916
vt 0.8620 0.7614
vt 0.7402 0.7844
vt 0.7306 0.6985
vt 0.8391 0.8528
vt 0.4106 0.3725
vt 0.3871 0.3380
vt 0.3783 0.2464
vt 0.8936 0.8558
vt 0.7795 0.8930
vt 0.9170 0.8034
vt 0.5561 0.8050
vt 0.5907 0.9285
vt 0.4998 0.9127
vt 0.4503 0.8801
vt 0.9335 0.7374
vt 0.4693 0.7101
vt 0.4097 0.8261
vt 0.3808 0.7047
vt 0.5127 0.7606
vt 0.5676 0.7246
vt 0.8111 0.5949
vt 0.8647 0.5363
vt 0.8907 0.6222
vt 0.9731 0.6150
vt 0.9038 0.6875
vt 0.9708 0.5401
vt 0.9086 0.4787
vt 0.4625 0.5584
vt 0.4318 0.6601
vt 0.3722 0.6323
vt 0.9571 0.4153
vt 0.4048 0.5220
vt 0.6209 0.6278
vt 0.5202 0.6833
vt 0.5191 0.6168
vt 0.4816 0.0769
vt 0.4634 0.0290
vt 0.3840 0.0871
vt 0.4010 0.0289
vt 0.1816 0.6472
vt 0.1825 0.7121
vt 0.1169 0.6833
vt 0.0620 0.6450
vt 0.0963 0.6047
vt 0.1357 0.5560
vt 0.5601 0.5545
vt 0.6333 0.5501
vt 0.4867 0.5141
vt 0.2142 0.5616
vt 0.1916 0.5131
vt 0.2618 0.5552
vt 0.6970 0.5354
vt 0.6843 0.5864
vt 0.8813 0.4196
vt 0.3554 0.7261
vt 0.2373 0.6922
vt 0.3111 0.6513
vt 0.9028 0.3467
vt 0.8106 0.3648
vt 0.2512 0.6387
vt 0.4082 0.4407
vt 0.2487 0.7526
vt 0.3331 0.7927
vt 0.1912 0.2100
vt 0.1924 0.1355
vt 0.2781 0.1528
vt 0.2470 0.1936
vt 0.3278 0.2025
vt 0.3426 0.8863
vt 0.1358 0.0087
vt 0.2538 0.0087
vt 0.1657 0.0616
vt 0.1181 0.1132
vt 0.2950 0.9441
vt 0.8467 0.4779
vt 0.7603 0.5039
vt 0.7840 0.4386
vt 0.2949 0.0671
vt 0.7431 0.3319
vt 0.7504 0.6233
vt 0.3760 0.1633
vt 0.6281 0.7463
vt 0.6812 0.8061
vt 0.6644 0.8587
vt 0.4386 0.2600
vt 0.5107 0.2285
vt 0.4816 0.3003
vt 0.6826 0.7525
vt 0.6385 0.9644
vt 0.6947 0.6370
vt 0.3998 0.1421
vt 0.4921 0.1642
vt 0.5579 0.2475
vt 0.5247 0.3437
vn -0.3947 -0.3470 0.8508
vn -0.8334 -0.2691 0.4828
vn -0.4000 -0.7135 0.5753
vn 0.0925 -0.3841 0.9186
vn 0.1078 -0.7928 0.5999
vn -0.5356 -0.0319 0.8438
vn -0.0545 0.0848 0.9949
vn -0.9078 -0.1258 0.4001
vn 0.4644 -0.6200 0.6324
vn 0.2975 -0.1934 0.9349
vn 0.4235 -0.6648 0.6153
vn 0.5639 -0.0324 0.8252
vn -0.0683 0.0888 0.9937
vn 0.1116 0.2073 0.9719
vn 0.1709 0.3821 0.9082
vn 0.6149 0.4422 0.6530
vn 0.3881 0.5738 0.7212
vn 0.1252 0.5301 0.8386
vn -0.1126 0.3051 0.9456
vn 0.7824 -0.0649 0.6194
vn -0.3926 0.6371 0.6633
vn -0.4965 0.7358 0.4606
vn -0.5877 0.6848 0.4309
vn -0.8077 0.2849 0.5162
vn -0.3916 0.4144 0.8215
vn -0.3072 0.6618 0.6838
vn -0.5556 0.6802 0.4782
vn -0.7477 0.6459 0.1542
vn 0.0072 0.7968 0.6042
vn -0.3916 0.8279 0.4015
vn -0.1181 0.9552 0.2712
vn -0.2551 0.9653 -0.0550
vn -0.4026 0.9135 0.0590
vn -0.6501 0.7514 0.1130
vn -0.6889 0.6777 -0.2571
vn 0.6919 0.6231 0.3648
vn 0.3799 0.8568 0.3487
vn 0.6367 0.7643 -0.1023
vn 0.2212 0.9742 0.0440
vn 0.1328 0.9433 -0.3041
vn 0.4854 0.5283 -0.6966
vn 0.0549 0.7040 -0.7081
vn 0.5207 0.8270 -0.2122
vn 0.6389 0.7227 -0.2637
vn -0.3253 0.8956 -0.3033
vn -0.5556 0.7359 -0.3871
vn -0.4238 0.5598 -0.7121
vn -0.7548 0.2858 -0.5904
vn -0.1691 0.2688 -0.9482
vn -0.5129 0.0267 -0.8580
vn 0.0026 0.0661 -0.9978
vn -0.5852 0.0520 -0.8092
vn -0.7337 -0.0442 -0.6780
vn 0.8131 0.0914 -0.5749
vn 0.6817 -0.1816 -0.7087
vn 0.3932 0.1722 -0.9032
vn 0.1635 0.2992 -0.9401
vn 0.2907 -0.3433 -0.8931
vn 0.5568 -0.5685 -0.6056
vn 0.0570 -0.8131 -0.5794
vn -0.2780 -0.2067 -0.9381
vn 0.4197 -0.8097 -0.4102
vn -0.7988 -0.3846 -0.4626
vn -0.6221 -0.1652 -0.7653
vn -0.5112 -0.4273 -0.7457
vn -0.8051 -0.5190 0.2873
vn -0.3965 -0.8985 0.1885
vn -0.7199 -0.6775 -0.1511
vn -0.3642 -0.9313 -0.0091
vn -0.0438 -0.9968 0.0665
vn 0.0938 -0.9503 0.2967
vn -0.0366 -0.9651 0.2594
vn -0.4236 -0.8955 -0.1363
vn -0.3842 -0.8616 -0.3319
vn 0.1092 -0.9889 -0.1010
vn -0.0065 -0.9991 -0.0409
vn 0.5999 -0.7085 -0.3716
vn 0.6401 -0.7634 -0.0863
vn 0.2213 -0.9646 0.1436
vn 0.3709 -0.9163 -0.1510
vn 0.1282 -0.9870 -0.0974
vn 0.3983 -0.8401 0.3683
vn 0.6382 -0.7379 0.2194
vn 0.8950 0.2608 0.3620
vn 0.9984 0.0430 0.0364
vn 0.9830 0.0206 -0.1827
vn 0.9542 0.2982 0.0260
vn 0.8467 0.5000 -0.1820
vn 0.8683 -0.3267 0.3733
vn 0.9020 -0.3499 -0.2528
vn 0.9277 -0.3652 -0.0779
vn 0.7952 -0.4029 -0.4531
vn 0.9596 -0.0653 -0.2738
vn 0.8685 0.3292 -0.3706
vn -0.8851 0.0434 -0.4633
vn -0.9083 0.3390 -0.2451
vn -0.8510 0.4711 -0.2321
vn -0.9553 0.0606 -0.2895
vn -0.9985 0.0269 0.0482
vn -0.9109 -0.3704 -0.1821
vn -0.9667 -0.1840 0.1777
vn -0.9186 0.3394 0.2027
usemtl Material1
s 1
f 1/1/1 2/2/2 3/3/3
f 4/4/4 1/1/1 3/3/3
f 3/5/3 5/6/5 4/7/4
f 6/8/6 1/1/1 7/9/7
f 1/1/1 4/4/4 7/9/7
f 8/10/8 2/2/2 6/8/6
f 6/8/6 2/2/2 1/1/1
f 9/11/9 10/12/10 11/13/11
f 9/11/9 12/14/12 10/12/10
f 13/15/13 7/9/7 4/4/4
f 4/4/4 10/16/10 13/15/13
f 10/16/10 14/17/14 13/15/13
f 4/7/4 5/6/5 11/13/11
f 11/13/11 10/12/10 4/7/4
f 15/18/15 16/19/16 17/20/17
f 18/21/18 19/22/19 15/23/15
f 15/18/15 17/20/17 18/24/18
f 19/22/19 13/15/13 14/17/14
f 14/17/14 15/23/15 19/22/19
f 12/25/12 20/26/20 16/19/16
f 16/19/16 15/18/15 12/25/12
f 12/25/12 15/18/15 14/27/14
f 14/27/14 10/28/10 12/25/12
f 21/29/21 22/30/22 23/31/23
f 24/32/24 25/33/25 23/31/23
f 25/33/25 21/29/21 23/31/23
f 8/10/8 6/8/6 24/32/24
f 25/33/25 24/32/24 6/8/6
f 7/9/7 13/15/13 19/22/19
f 25/33/25 7/9/7 19/22/19
f 25/33/25 6/8/6 7/9/7
f 19/22/19 18/21/18 26/34/26
f 19/22/19 26/34/26 21/29/21
f 21/29/21 25/33/25 19/22/19
f 22/30/22 21/29/21 27/35/27
f 21/29/21 26/34/26 27/35/27
f 27/35/27 28/36/28 22/30/22
f 26/37/26 18/24/18 29/38/29
f 26/37/26 29/38/29 30/39/30
f 30/39/30 27/40/27 26/37/26
f 31/41/31 32/42/32 33/43/33
f 30/39/30 31/41/31 33/43/33
f 34/44/34 28/36/28 27/35/27
f 27/40/27 30/39/30 34/45/34
f 30/39/30 33/43/33 34/45/34
f 33/46/33 35/47/35 34/48/34
f 17/20/17 16/19/16 36/49/36
f 37/50/37 17/20/17 36/49/36
f 37/50/37 36/49/36 38/51/38
f 39/52/39 37/50/37 38/51/38
f 39/52/39 32/42/32 31/41/31
f 29/38/29 18/24/18 17/20/17
f 37/50/37 39/52/39 31/41/31
f 17/20/17 37/50/37 29/38/29
f 29/38/29 37/50/37 31/41/31
f 31/41/31 30/39/30 29/38/29
f 40/53/40 41/54/41 42/55/42
f 40/53/40 43/56/43 41/54/41
f 41/54/41 43/56/43 44/57/44
f 45/58/45 40/53/40 42/55/42
f 32/42/32 39/52/39 40/59/40
f 43/60/43 40/59/40 39/52/39
f 38/51/38 44/61/44 43/60/43
f 43/60/43 39/52/39 38/51/38
f 45/58/45 46/62/46 35/47/35
f 40/53/40 45/58/45 32/63/32
f 35/47/35 33/46/33 32/63/32
f 35/47/35 32/63/32 45/58/45
f 45/58/45 42/55/42 47/64/47
f 47/64/47 46/62/46 45/58/45
f 48/65/48 35/66/35 46/67/46
f 48/65/48 46/67/46 47/68/47
f 47/64/47 42/55/42 49/69/49
f 50/70/50 47/68/47 49/71/49
f 50/70/50 49/71/49 51/72/51
f 52/73/52 53/74/53 48/65/48
f 48/65/48 47/68/47 52/73/52
f 47/68/47 50/70/50 52/73/52
f 54/75/54 55/76/55 56/77/56
f 41/54/41 54/75/54 56/77/56
f 56/77/56 51/78/51 57/79/57
f 51/78/51 49/69/49 57/79/57
f 57/79/57 49/69/49 42/55/42
f 41/54/41 57/79/57 42/55/42
f 41/54/41 56/77/56 57/79/57
f 58/80/58 55/76/55 59/81/59
f 60/82/60 61/83/61 58/84/58
f 59/81/59 62/85/62 58/80/58
f 58/84/58 62/86/62 60/82/60
f 51/78/51 56/77/56 58/80/58
f 58/84/58 61/83/61 51/72/51
f 58/80/58 56/77/56 55/76/55
f 63/87/63 64/88/64 65/89/65
f 53/74/53 52/73/52 64/88/64
f 64/88/64 52/73/52 50/70/50
f 51/72/51 61/83/61 50/70/50
f 64/88/64 50/70/50 61/83/61
f 61/83/61 60/82/60 65/89/65
f 65/89/65 64/88/64 61/83/61
f 66/90/66 67/91/67 3/3/3
f 67/91/67 68/92/68 69/93/69
f 70/94/70 71/95/71 72/96/72
f 72/96/72 67/97/67 69/98/69
f 72/96/72 69/98/69 70/94/70
f 73/99/73 70/94/70 69/98/69
f 3/5/3 72/96/72 5/6/5
f 67/97/67 72/96/72 3/5/3
f 72/96/72 71/95/71 5/6/5
f 74/100/74 73/101/73 63/87/63
f 74/100/74 63/87/63 65/89/65
f 74/100/74 65/89/65 60/82/60
f 60/82/60 75/102/75 74/100/74
f 70/94/70 73/99/73 76/103/76
f 73/99/73 74/104/74 76/103/76
f 74/104/74 75/105/75 76/103/76
f 69/106/69 68/107/68 73/101/73
f 59/81/59 77/108/77 62/85/62
f 78/109/78 79/110/79 80/111/80
f 80/112/80 62/85/62 77/108/77
f 80/112/80 77/108/77 78/113/78
f 70/94/70 76/103/76 81/114/81
f 76/103/76 75/105/75 81/114/81
f 81/114/81 75/105/75 80/111/80
f 80/115/80 75/102/75 62/86/62
f 75/102/75 60/82/60 62/86/62
f 11/13/11 82/116/82 9/11/9
f 82/116/82 83/117/83 9/11/9
f 5/6/5 71/95/71 82/116/82
f 82/116/82 11/13/11 5/6/5
f 79/110/79 70/94/70 81/114/81
f 80/111/80 79/110/79 81/114/81
f 79/110/79 82/116/82 71/95/71
f 71/95/71 70/94/70 79/110/79
f 82/116/82 79/110/79 78/109/78
f 82/116/82 78/109/78 83/117/83
f 16/19/16 84/118/84 36/49/36
f 84/118/84 16/19/16 20/26/20
f 85/119/85 86/120/86 87/121/87
f 20/26/20 85/119/85 84/118/84
f 84/118/84 85/119/85 87/121/87
f 36/49/36 84/118/84 87/121/87
f 87/121/87 88/122/88 36/49/36
f 9/11/9 83/117/83 89/123/89
f 83/124/83 90/125/90 91/126/91
f 91/126/91 89/127/89 83/124/83
f 89/127/89 91/126/91 85/119/85
f 90/125/90 85/119/85 91/126/91
f 12/14/12 9/11/9 20/128/20
f 20/128/20 9/11/9 89/123/89
f 85/119/85 20/26/20 89/127/89
f 77/108/77 59/81/59 92/129/92
f 59/81/59 55/76/55 92/129/92
f 92/129/92 93/130/93 90/131/90
f 90/131/90 77/108/77 92/129/92
f 55/76/55 54/75/54 93/130/93
f 92/129/92 55/76/55 93/130/93
f 86/120/86 85/119/85 93/132/93
f 93/132/93 85/119/85 90/125/90
f 78/113/78 77/108/77 90/131/90
f 90/131/90 83/133/83 78/113/78
f 41/54/41 44/57/44 94/134/94
f 94/134/94 54/75/54 41/54/41
f 38/51/38 36/49/36 88/122/88
f 94/135/94 44/61/44 88/122/88
f 44/61/44 38/51/38 88/122/88
f 93/132/93 94/135/94 86/120/86
f 93/130/93 54/75/54 94/134/94
f 94/135/94 88/122/88 86/120/86
f 87/121/87 86/120/86 88/122/88
f 48/65/48 53/74/53 95/136/95
f 95/136/95 96/137/96 48/65/48
f 96/137/96 97/138/97 48/65/48
f 98/139/98 99/140/99 96/141/96
f 96/137/96 95/136/95 98/142/98
f 97/138/97 34/143/34 35/66/35
f 48/65/48 97/138/97 35/66/35
f 64/88/64 63/87/63 53/74/53
f 95/136/95 53/74/53 63/87/63
f 95/136/95 63/87/63 100/144/100
f 63/87/63 68/107/68 100/144/100
f 63/87/63 73/101/73 68/107/68
f 98/142/98 95/136/95 100/144/100
f 98/139/98 100/145/100 101/146/101
f 2/2/2 66/90/66 3/3/3
f 101/146/101 66/90/66 2/2/2
f 101/146/101 2/2/2 8/10/8
f 99/140/99 98/139/98 101/146/101
f 101/146/101 8/10/8 99/140/99
f 68/92/68 67/91/67 66/90/66
f 66/90/66 101/146/101 100/145/100
f 66/90/66 100/145/100 68/92/68
f 22/30/22 28/36/28 23/31/23
f 28/36/28 102/147/102 23/31/23
f 34/44/34 97/148/97 28/36/28
f 97/148/97 102/147/102 28/36/28
f 8/10/8 102/147/102 99/140/99
f 99/140/99 102/147/102 96/141/96
f 97/148/97 96/141/96 102/147/102
f 24/32/24 23/31/23 102/147/102
f 102/147/102 8/10/8 24/32/24
